<svg xmlns="http://www.w3.org/2000/svg" version="1.1" xmlns:xlink="http://www.w3.org/1999/xlink" xmlns:svgjs="http://svgjs.dev/svgjs" width="2000" height="277" viewBox="0 0 2000 277"><g transform="matrix(1,0,0,1,-1.2121212121212466,0.011821825566244115)"><svg viewBox="0 0 396 55" data-background-color="#000000" preserveAspectRatio="xMidYMid meet" height="277" width="2000" xmlns="http://www.w3.org/2000/svg" xmlns:xlink="http://www.w3.org/1999/xlink"><g id="tight-bounds" transform="matrix(1,0,0,1,0.2400000000000091,-0.00234707394133693)"><svg viewBox="0 0 395.52 55.00469436782632" height="55.00469436782632" width="395.52"><g><svg viewBox="0 0 395.52 55.00469436782632" height="55.00469436782632" width="395.52"><g><svg viewBox="0 0 395.52 55.00469436782632" height="55.00469436782632" width="395.52"><g id="textblocktransform"><svg viewBox="0 0 395.52 55.00469436782632" height="55.00469436782632" width="395.52" id="textblock"><g><svg viewBox="0 0 395.52 55.00469436782632" height="55.00469436782632" width="395.52"><g transform="matrix(1,0,0,1,0,0)"><svg width="395.52" viewBox="5.369999885559082 -38.15999984741211 274.3800048828125 38.15999984741211" height="55.00469436782632" data-palette-color="#ffffff"><path d="M5.37 0L5.37-38.16 13.11-38.16 36.89-25.71 36.89-38.16 44.63-38.16 44.63 0 36.89 0 36.89-17.5 13.11-29.88 13.11 0 5.37 0ZM50.51 0L68.43-38.16 76.63-38.16 95.09 0 86.96 0 83.91-6.42 61.62-6.42 58.66 0 50.51 0ZM64.57-12.79L80.86-12.79 72.6-30.13 64.57-12.79ZM101.02 0L101.02-38.16 121.14-38.16Q125.53-38.16 128.75-37.21 131.98-36.25 134.1-34.46 136.23-32.67 137.26-30.08 138.3-27.49 138.3-24.24L138.3-24.24Q138.3-21.19 137.28-18.6 136.25-16.02 134.14-14.12 132.03-12.23 128.8-11.17 125.58-10.11 121.19-10.11L121.19-10.11 108.76-10.13 108.76 0 101.02 0ZM108.76-16.82L121.33-16.82Q123.53-16.82 125.18-17.35 126.83-17.87 127.94-18.84 129.05-19.8 129.6-21.18 130.15-22.56 130.15-24.24L130.15-24.24Q130.15-27.64 127.94-29.53 125.73-31.42 121.33-31.42L121.33-31.42 108.76-31.42 108.76-16.82ZM158.24 0L158.24-31.37 144.16-31.37 144.16-38.16 180.07-38.16 180.07-31.37 165.98-31.37 165.98 0 158.24 0ZM187.34 0L187.34-38.16 195.13-38.16 195.13 0 187.34 0ZM216.61 0L199.89-38.16 208.46-38.16 220.45-9.06 232.43-38.16 241-38.16 224.28 0 216.61 0ZM246.74 0L246.74-38.16 279.23-38.16 279.23-31.37 254.48-31.37 254.48-23.75 276.4-23.75 276.4-17.38 254.48-17.38 254.48-6.76 279.75-6.76 279.75 0 246.74 0Z" opacity="1" transform="matrix(1,0,0,1,0,0)" fill="#ffffff" class="wordmark-text-0" data-fill-palette-color="primary" id="text-0"></path></svg></g></svg></g></svg></g></svg></g><g></g></svg></g><defs></defs></svg><rect width="395.52" height="55.00469436782632" fill="none" stroke="none" visibility="hidden"></rect></g></svg></g></svg>